<svg width="24" height="20" viewBox="0 0 24 20" fill="none" xmlns="http://www.w3.org/2000/svg">
<path d="M14.6392 7.89935C13.6591 7.89935 12.7375 8.31548 12.0022 9.06825C11.2689 8.30777 10.358 7.89935 9.3602 7.89935C7.61794 7.89935 6.07888 9.16315 5.61755 10.9726C5.3758 11.9204 5.32525 13.429 6.45644 15.233C7.46681 16.8441 9.20221 18.3283 11.6143 19.6441C11.7343 19.7096 11.8666 19.7422 11.9991 19.7422C12.1314 19.7422 12.2639 19.7096 12.3837 19.6442C14.7966 18.3284 16.5325 16.8442 17.5433 15.2331C18.675 13.4291 18.6246 11.9206 18.383 10.9728C17.9214 9.16315 16.382 7.89935 14.6392 7.89935ZM11.999 18.0189C6.72625 15.006 6.96789 12.1787 7.17429 11.3695C7.44957 10.2897 8.36889 9.50601 9.36009 9.50601C10.1142 9.50601 10.8074 9.96487 11.3118 10.7981C11.4572 11.0384 11.7178 11.1853 11.9989 11.1854C11.9989 11.1854 11.9989 11.1854 11.999 11.1854C12.2799 11.1854 12.5405 11.0387 12.686 10.7984C13.191 9.96498 13.8845 9.50601 14.6391 9.50601C15.631 9.50601 16.5506 10.2897 16.8259 11.3695C17.0323 12.1786 17.2735 15.0058 11.999 18.0189Z" fill="#713FFF"/>
<path d="M8.53431 6.52201C10.2614 6.52201 11.6664 5.11704 11.6664 3.3901C11.6664 1.66295 10.2614 0.257874 8.53431 0.257874C6.80716 0.257874 5.40198 1.66305 5.40198 3.3901C5.40198 5.11704 6.80716 6.52201 8.53431 6.52201ZM8.53431 1.86453C9.37556 1.86453 10.0598 2.54896 10.0598 3.3901C10.0598 4.23113 9.37545 4.91535 8.53431 4.91535C7.69307 4.91535 7.00863 4.23113 7.00863 3.3901C7.00863 2.54886 7.69296 1.86453 8.53431 1.86453Z" fill="#713FFF"/>
<path d="M15.4662 6.52201C17.1933 6.52201 18.5983 5.11704 18.5983 3.3901C18.5983 1.66295 17.1933 0.257874 15.4662 0.257874C13.7392 0.257874 12.3341 1.66305 12.3341 3.3901C12.334 5.11704 13.7391 6.52201 15.4662 6.52201ZM15.4662 1.86453C16.3074 1.86453 16.9917 2.54896 16.9917 3.3901C16.9917 4.23113 16.3074 4.91535 15.4662 4.91535C14.625 4.91535 13.9408 4.23113 13.9408 3.3901C13.9407 2.54886 14.625 1.86453 15.4662 1.86453Z" fill="#713FFF"/>
<path d="M2.89905 5.00714C1.30053 5.00714 0 6.30778 0 7.90651C0 9.50502 1.30053 10.8054 2.89905 10.8054C4.49778 10.8054 5.79831 9.50491 5.79831 7.90651C5.79842 6.30778 4.49778 5.00714 2.89905 5.00714ZM2.89905 9.19879C2.18644 9.19879 1.60666 8.61911 1.60666 7.90651C1.60666 7.1938 2.18644 6.6139 2.89905 6.6139C3.61176 6.6139 4.19166 7.1938 4.19166 7.90651C4.19176 8.61911 3.61187 9.19879 2.89905 9.19879Z" fill="#713FFF"/>
<path d="M21.1007 5.00714C19.5021 5.00714 18.2017 6.30778 18.2017 7.9064C18.2017 9.50491 19.5022 10.8053 21.1007 10.8053C22.6994 10.8053 24 9.50481 24 7.9064C24 6.30778 22.6994 5.00714 21.1007 5.00714ZM21.1007 9.19879C20.3881 9.19879 19.8083 8.61901 19.8083 7.90651C19.8083 7.1938 20.3881 6.6139 21.1007 6.6139C21.8134 6.6139 22.3933 7.1938 22.3933 7.90651C22.3933 8.61911 21.8134 9.19879 21.1007 9.19879Z" fill="#713FFF"/>
</svg>
