<svg width="108" height="24" viewBox="0 0 108 24" fill="none" xmlns="http://www.w3.org/2000/svg">
<path d="M35.836 18C35.716 18 35.614 17.964 35.53 17.892C35.446 17.808 35.404 17.7 35.404 17.568V5.85C35.404 5.718 35.446 5.61 35.53 5.526C35.614 5.442 35.716 5.4 35.836 5.4H37.474C37.606 5.4 37.708 5.442 37.78 5.526C37.864 5.61 37.906 5.718 37.906 5.85V10.494H43.216V5.85C43.216 5.718 43.258 5.61 43.342 5.526C43.426 5.442 43.528 5.4 43.648 5.4H45.268C45.4 5.4 45.508 5.442 45.592 5.526C45.676 5.61 45.718 5.718 45.718 5.85V17.568C45.718 17.688 45.676 17.79 45.592 17.874C45.508 17.958 45.4 18 45.268 18H43.648C43.528 18 43.426 17.958 43.342 17.874C43.258 17.79 43.216 17.688 43.216 17.568V12.744H37.906V17.568C37.906 17.688 37.864 17.79 37.78 17.874C37.708 17.958 37.606 18 37.474 18H35.836ZM52.3333 18.18C51.0013 18.18 49.9453 17.796 49.1653 17.028C48.3853 16.26 47.9653 15.168 47.9053 13.752C47.8933 13.632 47.8873 13.482 47.8873 13.302C47.8873 13.11 47.8933 12.96 47.9053 12.852C47.9533 11.952 48.1573 11.172 48.5173 10.512C48.8893 9.852 49.3993 9.348 50.0473 9C50.6953 8.64 51.4573 8.46 52.3333 8.46C53.3053 8.46 54.1213 8.664 54.7813 9.072C55.4413 9.468 55.9393 10.026 56.2753 10.746C56.6113 11.454 56.7793 12.276 56.7793 13.212V13.59C56.7793 13.71 56.7373 13.812 56.6533 13.896C56.5693 13.98 56.4613 14.022 56.3293 14.022H50.3533C50.3533 14.022 50.3533 14.04 50.3533 14.076C50.3533 14.112 50.3533 14.142 50.3533 14.166C50.3653 14.586 50.4433 14.976 50.5873 15.336C50.7433 15.684 50.9653 15.966 51.2533 16.182C51.5533 16.398 51.9073 16.506 52.3153 16.506C52.6513 16.506 52.9333 16.458 53.1613 16.362C53.3893 16.254 53.5753 16.134 53.7193 16.002C53.8633 15.87 53.9653 15.762 54.0253 15.678C54.1333 15.534 54.2173 15.45 54.2773 15.426C54.3493 15.39 54.4513 15.372 54.5833 15.372H56.1313C56.2513 15.372 56.3473 15.408 56.4193 15.48C56.5033 15.552 56.5393 15.642 56.5273 15.75C56.5153 15.942 56.4133 16.176 56.2213 16.452C56.0413 16.728 55.7773 16.998 55.4293 17.262C55.0813 17.526 54.6433 17.748 54.1153 17.928C53.5993 18.096 53.0053 18.18 52.3333 18.18ZM50.3533 12.51H54.3313V12.456C54.3313 11.988 54.2533 11.58 54.0973 11.232C53.9413 10.884 53.7133 10.608 53.4133 10.404C53.1133 10.2 52.7533 10.098 52.3333 10.098C51.9133 10.098 51.5533 10.2 51.2533 10.404C50.9533 10.608 50.7253 10.884 50.5693 11.232C50.4253 11.58 50.3533 11.988 50.3533 12.456V12.51ZM59.14 18C59.02 18 58.918 17.958 58.834 17.874C58.75 17.79 58.708 17.688 58.708 17.568V5.652C58.708 5.532 58.75 5.43 58.834 5.346C58.918 5.262 59.02 5.22 59.14 5.22H60.634C60.754 5.22 60.856 5.262 60.94 5.346C61.024 5.43 61.066 5.532 61.066 5.652V17.568C61.066 17.688 61.024 17.79 60.94 17.874C60.856 17.958 60.754 18 60.634 18H59.14ZM63.9036 21.42C63.7836 21.42 63.6816 21.378 63.5976 21.294C63.5136 21.21 63.4716 21.108 63.4716 20.988V9.072C63.4716 8.952 63.5136 8.85 63.5976 8.766C63.6816 8.682 63.7836 8.64 63.9036 8.64H65.3256C65.4576 8.64 65.5596 8.682 65.6316 8.766C65.7156 8.85 65.7576 8.952 65.7576 9.072V9.792C66.0456 9.408 66.4236 9.09 66.8916 8.838C67.3596 8.586 67.9416 8.46 68.6376 8.46C69.2736 8.46 69.8256 8.562 70.2936 8.766C70.7616 8.97 71.1516 9.264 71.4636 9.648C71.7756 10.02 72.0156 10.464 72.1836 10.98C72.3516 11.496 72.4476 12.066 72.4716 12.69C72.4836 12.894 72.4896 13.104 72.4896 13.32C72.4896 13.536 72.4836 13.752 72.4716 13.968C72.4596 14.568 72.3696 15.126 72.2016 15.642C72.0336 16.146 71.7876 16.59 71.4636 16.974C71.1516 17.346 70.7616 17.64 70.2936 17.856C69.8256 18.072 69.2736 18.18 68.6376 18.18C67.9896 18.18 67.4376 18.066 66.9816 17.838C66.5256 17.598 66.1536 17.286 65.8656 16.902V20.988C65.8656 21.108 65.8236 21.21 65.7396 21.294C65.6676 21.378 65.5656 21.42 65.4336 21.42H63.9036ZM67.9716 16.254C68.4876 16.254 68.8896 16.146 69.1776 15.93C69.4656 15.702 69.6696 15.408 69.7896 15.048C69.9216 14.688 69.9996 14.292 70.0236 13.86C70.0476 13.5 70.0476 13.14 70.0236 12.78C69.9996 12.348 69.9216 11.952 69.7896 11.592C69.6696 11.232 69.4656 10.944 69.1776 10.728C68.8896 10.5 68.4876 10.386 67.9716 10.386C67.4796 10.386 67.0776 10.5 66.7656 10.728C66.4656 10.956 66.2436 11.25 66.0996 11.61C65.9676 11.958 65.8896 12.318 65.8656 12.69C65.8536 12.906 65.8476 13.134 65.8476 13.374C65.8476 13.614 65.8536 13.848 65.8656 14.076C65.8776 14.436 65.9616 14.784 66.1176 15.12C66.2736 15.444 66.5016 15.714 66.8016 15.93C67.1016 16.146 67.4916 16.254 67.9716 16.254ZM75.1583 18C75.0383 18 74.9363 17.958 74.8523 17.874C74.7683 17.79 74.7263 17.688 74.7263 17.568V5.85C74.7263 5.718 74.7683 5.61 74.8523 5.526C74.9363 5.442 75.0383 5.4 75.1583 5.4H79.5503C80.7623 5.4 81.7583 5.586 82.5383 5.958C83.3303 6.33 83.9243 6.882 84.3203 7.614C84.7283 8.346 84.9383 9.24 84.9503 10.296C84.9743 10.824 84.9863 11.292 84.9863 11.7C84.9863 12.108 84.9743 12.57 84.9503 13.086C84.9263 14.202 84.7223 15.126 84.3383 15.858C83.9543 16.578 83.3723 17.118 82.5923 17.478C81.8243 17.826 80.8403 18 79.6403 18H75.1583ZM77.2283 15.93H79.5503C80.2223 15.93 80.7683 15.834 81.1883 15.642C81.6083 15.45 81.9143 15.144 82.1063 14.724C82.3103 14.292 82.4183 13.728 82.4303 13.032C82.4423 12.672 82.4483 12.36 82.4483 12.096C82.4603 11.82 82.4603 11.55 82.4483 11.286C82.4483 11.01 82.4423 10.698 82.4303 10.35C82.4063 9.366 82.1603 8.64 81.6923 8.172C81.2243 7.704 80.4803 7.47 79.4603 7.47H77.2283V15.93ZM91.3065 18.18C90.3465 18.18 89.5365 18.012 88.8765 17.676C88.2285 17.34 87.7305 16.866 87.3825 16.254C87.0465 15.642 86.8545 14.928 86.8065 14.112C86.7945 13.896 86.7885 13.632 86.7885 13.32C86.7885 13.008 86.7945 12.744 86.8065 12.528C86.8545 11.7 87.0525 10.986 87.4005 10.386C87.7605 9.774 88.2645 9.3 88.9125 8.964C89.5725 8.628 90.3705 8.46 91.3065 8.46C92.2425 8.46 93.0345 8.628 93.6825 8.964C94.3425 9.3 94.8465 9.774 95.1945 10.386C95.5545 10.986 95.7585 11.7 95.8065 12.528C95.8185 12.744 95.8245 13.008 95.8245 13.32C95.8245 13.632 95.8185 13.896 95.8065 14.112C95.7585 14.928 95.5605 15.642 95.2125 16.254C94.8765 16.866 94.3785 17.34 93.7185 17.676C93.0705 18.012 92.2665 18.18 91.3065 18.18ZM91.3065 16.398C91.9425 16.398 92.4345 16.2 92.7825 15.804C93.1305 15.396 93.3225 14.802 93.3585 14.022C93.3705 13.842 93.3765 13.608 93.3765 13.32C93.3765 13.032 93.3705 12.798 93.3585 12.618C93.3225 11.85 93.1305 11.262 92.7825 10.854C92.4345 10.446 91.9425 10.242 91.3065 10.242C90.6705 10.242 90.1785 10.446 89.8305 10.854C89.4825 11.262 89.2905 11.85 89.2545 12.618C89.2425 12.798 89.2365 13.032 89.2365 13.32C89.2365 13.608 89.2425 13.842 89.2545 14.022C89.2905 14.802 89.4825 15.396 89.8305 15.804C90.1785 16.2 90.6705 16.398 91.3065 16.398ZM102.049 21.96C101.173 21.96 100.453 21.846 99.8889 21.618C99.3249 21.39 98.8809 21.114 98.5569 20.79C98.2329 20.466 97.9989 20.142 97.8549 19.818C97.7229 19.506 97.6509 19.26 97.6389 19.08C97.6269 18.96 97.6629 18.852 97.7469 18.756C97.8429 18.672 97.9509 18.63 98.0709 18.63H99.6369C99.7569 18.63 99.8529 18.654 99.9249 18.702C99.9969 18.762 100.057 18.864 100.105 19.008C100.177 19.164 100.273 19.332 100.393 19.512C100.513 19.692 100.693 19.842 100.933 19.962C101.185 20.094 101.527 20.16 101.959 20.16C102.415 20.16 102.799 20.094 103.111 19.962C103.423 19.83 103.657 19.608 103.813 19.296C103.981 18.984 104.065 18.552 104.065 18V16.776C103.777 17.124 103.405 17.406 102.949 17.622C102.505 17.838 101.953 17.946 101.293 17.946C100.645 17.946 100.087 17.844 99.6189 17.64C99.1509 17.424 98.7609 17.13 98.4489 16.758C98.1369 16.374 97.8969 15.924 97.7289 15.408C97.5729 14.892 97.4829 14.322 97.4589 13.698C97.4469 13.374 97.4469 13.05 97.4589 12.726C97.4829 12.126 97.5729 11.568 97.7289 11.052C97.8849 10.536 98.1189 10.086 98.4309 9.702C98.7549 9.306 99.1509 9 99.6189 8.784C100.087 8.568 100.645 8.46 101.293 8.46C101.977 8.46 102.553 8.592 103.021 8.856C103.489 9.108 103.873 9.426 104.173 9.81V9.09C104.173 8.958 104.215 8.85 104.299 8.766C104.383 8.682 104.485 8.64 104.605 8.64H106.063C106.183 8.64 106.285 8.682 106.369 8.766C106.453 8.85 106.495 8.958 106.495 9.09L106.513 17.766C106.513 18.63 106.351 19.374 106.027 19.998C105.703 20.622 105.211 21.102 104.551 21.438C103.903 21.786 103.069 21.96 102.049 21.96ZM101.959 16.038C102.451 16.038 102.847 15.93 103.147 15.714C103.447 15.498 103.669 15.216 103.813 14.868C103.957 14.52 104.041 14.166 104.065 13.806C104.077 13.65 104.083 13.452 104.083 13.212C104.083 12.972 104.077 12.78 104.065 12.636C104.041 12.264 103.957 11.91 103.813 11.574C103.669 11.226 103.447 10.944 103.147 10.728C102.847 10.5 102.451 10.386 101.959 10.386C101.467 10.386 101.071 10.5 100.771 10.728C100.471 10.944 100.255 11.232 100.123 11.592C100.003 11.952 99.9309 12.348 99.9069 12.78C99.8829 13.068 99.8829 13.362 99.9069 13.662C99.9309 14.082 100.003 14.478 100.123 14.85C100.255 15.21 100.471 15.498 100.771 15.714C101.071 15.93 101.467 16.038 101.959 16.038Z" fill="#3C184E"/>
<path d="M14.6392 9.89935C13.6591 9.89935 12.7375 10.3155 12.0022 11.0682C11.2689 10.3078 10.358 9.89935 9.3602 9.89935C7.61794 9.89935 6.07888 11.1631 5.61755 12.9726C5.3758 13.9204 5.32525 15.429 6.45644 17.233C7.46681 18.8441 9.20221 20.3283 11.6143 21.6441C11.7343 21.7096 11.8666 21.7422 11.9991 21.7422C12.1314 21.7422 12.2639 21.7096 12.3837 21.6442C14.7966 20.3284 16.5325 18.8442 17.5433 17.2331C18.675 15.4291 18.6246 13.9206 18.383 12.9728C17.9214 11.1631 16.382 9.89935 14.6392 9.89935ZM11.999 20.0189C6.72625 17.006 6.96789 14.1787 7.17429 13.3695C7.44957 12.2897 8.36889 11.506 9.36009 11.506C10.1142 11.506 10.8074 11.9649 11.3118 12.7981C11.4572 13.0384 11.7178 13.1853 11.9989 13.1854C11.9989 13.1854 11.9989 13.1854 11.999 13.1854C12.2799 13.1854 12.5405 13.0387 12.686 12.7984C13.191 11.965 13.8845 11.506 14.6391 11.506C15.631 11.506 16.5506 12.2897 16.8259 13.3695C17.0323 14.1786 17.2735 17.0058 11.999 20.0189Z" fill="#713FFF"/>
<path d="M8.53431 8.52201C10.2614 8.52201 11.6664 7.11704 11.6664 5.3901C11.6664 3.66295 10.2614 2.25787 8.53431 2.25787C6.80716 2.25787 5.40198 3.66305 5.40198 5.3901C5.40198 7.11704 6.80716 8.52201 8.53431 8.52201ZM8.53431 3.86453C9.37556 3.86453 10.0598 4.54896 10.0598 5.3901C10.0598 6.23113 9.37545 6.91535 8.53431 6.91535C7.69307 6.91535 7.00863 6.23113 7.00863 5.3901C7.00863 4.54886 7.69296 3.86453 8.53431 3.86453Z" fill="#713FFF"/>
<path d="M15.4662 8.52201C17.1933 8.52201 18.5983 7.11704 18.5983 5.3901C18.5983 3.66295 17.1933 2.25787 15.4662 2.25787C13.7392 2.25787 12.3341 3.66305 12.3341 5.3901C12.334 7.11704 13.7391 8.52201 15.4662 8.52201ZM15.4662 3.86453C16.3074 3.86453 16.9917 4.54896 16.9917 5.3901C16.9917 6.23113 16.3074 6.91535 15.4662 6.91535C14.625 6.91535 13.9408 6.23113 13.9408 5.3901C13.9407 4.54886 14.625 3.86453 15.4662 3.86453Z" fill="#713FFF"/>
<path d="M2.89905 7.00714C1.30053 7.00714 0 8.30778 0 9.90651C0 11.505 1.30053 12.8054 2.89905 12.8054C4.49778 12.8054 5.79831 11.5049 5.79831 9.90651C5.79842 8.30778 4.49778 7.00714 2.89905 7.00714ZM2.89905 11.1988C2.18644 11.1988 1.60666 10.6191 1.60666 9.90651C1.60666 9.1938 2.18644 8.6139 2.89905 8.6139C3.61176 8.6139 4.19166 9.1938 4.19166 9.90651C4.19176 10.6191 3.61187 11.1988 2.89905 11.1988Z" fill="#713FFF"/>
<path d="M21.1007 7.00714C19.5021 7.00714 18.2017 8.30778 18.2017 9.9064C18.2017 11.5049 19.5022 12.8053 21.1007 12.8053C22.6994 12.8053 24 11.5048 24 9.9064C24 8.30778 22.6994 7.00714 21.1007 7.00714ZM21.1007 11.1988C20.3881 11.1988 19.8083 10.619 19.8083 9.90651C19.8083 9.1938 20.3881 8.6139 21.1007 8.6139C21.8134 8.6139 22.3933 9.1938 22.3933 9.90651C22.3933 10.6191 21.8134 11.1988 21.1007 11.1988Z" fill="#713FFF"/>
</svg>
